<svg id="レイヤー_1" data-name="レイヤー 1" xmlns="http://www.w3.org/2000/svg" viewBox="0 0 1872.72 1656"><defs><style>.cls-1{fill:#020202;}.cls-2{fill:none;}</style></defs><title>アートボード 1</title><g id="Warstwa_1"><g id="_1812173892368" data-name=" 1812173892368"><path class="cls-1" d="M1049.08,1373.14c-64.37,13.82-137.29,17.95-224.07,0-73.4-15.18-136.39-37.5-244.62-124.48-73.5-59.07-134.15-130.87-169.15-241.61-63.89-202.15,15.43-245.92,9.63-373.4-6-133-30.68-282.5-31.37-415.3C450.42,243.54,719.28,383.83,771,371c111.69-27.59,200.86-36.53,315.31-4.9,64.93,17.94,73.51-3.31,133.24-29.86,87-38.7,177.76-83.82,263.27-117.94,3.54,113-22.09,289.37-29.77,407.25-7.95,122.08,72.81,188.7,10.85,376.05-64,193.37-218,329.21-414.85,371.49Z"/><path d="M569,1109.86a354.35,354.35,0,0,1,44.75-11.19q-1.9-18.14-3.81-36.29a375.85,375.85,0,0,0-47.66,11.73c-57.33,18.76-110.24,49.32-161.5,87.12-33.45,26.08-60.68,51.38-88.17,87.44-9.49,13.18-54.26,84.79-46.73,104.06.22-.14,48.33-80.66,56.68-90.63,28.4-31.52,55.72-53.95,88.67-76.74C464.53,1150.5,511.21,1127.47,569,1109.86Z"/><path class="cls-2" d="M611.86,1080.54c-123.05,21.55-310.5,135.17-345.9,272.23"/><path d="M517.39,1038.85a685.31,685.31,0,0,1,83.79,11l4.17-36.23a708.88,708.88,0,0,0-86.5-11.55c-79.52-4.69-142.74,7.35-218.63,40.54-74.12,38.33-237.32,167.5-277,253.83,93.72-62.93,117.24-149.63,284.4-226.38,75.69-29.44,131.89-36.76,209.81-31.26Z"/><path class="cls-2" d="M603.26,1031.78c-224.86-43.16-380.07,20.59-580,264.77"/><path d="M505.73,1066.67c11.65-3.82,22.87-7,34.84-8.64,4.12-1,8.35-.28,12.48-.22,1.73.29,3.68,1.65,2.16.16L573,1029.45c-5.3-5.17-10.1-6.91-16.58-8a70.6,70.6,0,0,0-18.49.09c-13.57,1.78-26.08,5.24-39.29,9.54-3,1-6.4,2.54-9.31,3.33-46,17.81-88.75,42.26-131.66,70.12-50.87,34.48-93.62,69.15-137.94,116.63C202.15,1241,125.44,1338.71,130.21,1372c1.68-1.22,79.09-113.49,99.72-134.38,45-42.88,87.9-74.54,138.28-105.51,42.47-25.32,83.61-46.81,128.78-62.47C499.32,1068.49,503.13,1067.54,505.73,1066.67Z"/><path class="cls-2" d="M564.11,1043.72c-32.26-33.54-359.57,123-433.84,328.3"/><path d="M1285.17,1109.86a354.34,354.34,0,0,0-44.75-11.19q1.9-18.14,3.81-36.29a375.85,375.85,0,0,1,47.66,11.73c57.33,18.76,110.24,49.32,161.5,87.12,33.45,26.08,60.68,51.38,88.17,87.44,9.49,13.18,54.26,84.79,46.73,104.06-.22-.14-48.33-80.66-56.68-90.63-28.4-31.52-55.72-53.95-88.67-76.74C1389.66,1150.5,1343,1127.47,1285.17,1109.86Z"/><path class="cls-2" d="M1242.33,1080.54c123.05,21.55,310.5,135.17,345.9,272.23"/><path d="M1336.81,1038.85a685.3,685.3,0,0,0-83.79,11l-4.17-36.23a708.89,708.89,0,0,1,86.5-11.55c79.52-4.69,142.74,7.35,218.62,40.54,74.12,38.33,237.32,167.5,277,253.83-93.72-62.93-117.24-149.63-284.4-226.38-75.69-29.44-131.89-36.76-209.81-31.26Z"/><path class="cls-2" d="M1250.93,1031.78c224.86-43.16,380.07,20.59,580,264.77"/><path d="M1348.46,1066.67c-11.65-3.82-22.87-7-34.84-8.64-4.12-1-8.35-.28-12.48-.22-1.73.29-3.68,1.65-2.16.16l-17.79-28.52c5.3-5.17,10.1-6.91,16.58-8a70.6,70.6,0,0,1,18.49.09c13.57,1.78,26.08,5.24,39.29,9.54,3,1,6.4,2.54,9.31,3.33,46,17.81,88.75,42.26,131.66,70.12,50.87,34.48,93.62,69.15,137.94,116.63C1652,1241,1728.75,1338.71,1724,1372c-1.68-1.22-79.09-113.49-99.72-134.38-45-42.88-87.9-74.54-138.28-105.51-42.47-25.32-83.61-46.81-128.78-62.47C1354.87,1068.49,1351.06,1067.54,1348.46,1066.67Z"/><path class="cls-2" d="M1290.09,1043.72c32.26-33.54,359.57,123,433.84,328.3"/></g></g></svg>